<svg width="232" height="550" viewBox="0 0 232 550" fill="none" xmlns="http://www.w3.org/2000/svg">
<path fill-rule="evenodd" clip-rule="evenodd" d="M156.166 25.4976C156.92 24.7833 161.246 23.1562 170.969 19.8624C178.549 17.3226 185.058 15.2193 185.455 15.2193C185.851 15.1796 188.233 17.2036 190.852 19.7037C193.432 22.2038 195.971 24.3468 196.487 24.4658C197.003 24.5849 201.409 24.7436 206.211 24.7833C212.404 24.8702 214.956 24.7192 215.998 25.9003C216.858 26.8762 216.688 28.7617 216.688 32.4424C216.688 38.0777 216.648 38.5539 215.656 40.4984C214.029 43.7526 211.41 45.3796 200.456 49.9434C197.202 51.2927 195.456 52.2848 194.225 53.4753C191.527 56.0548 191.685 57.0469 196.845 70.3413C205.417 92.3663 206.727 99.1126 206.766 120.542C206.766 142.369 206.369 144.036 199.067 152.211C195.694 156.02 195.257 156.655 194.86 158.719C193.511 165.227 197.48 180.546 204.583 196.062L206.092 199.316H208.631C211.648 199.316 213.394 199.951 214.783 201.618C217.72 205.11 216.966 210.15 213.195 212.492C211.806 213.325 211.251 213.404 204.306 213.523C195.892 213.682 194.305 213.325 192.36 210.785C191.169 209.198 185.812 197.292 182.359 188.403C179.224 180.387 176.128 170.783 174.819 164.949C173.747 160.187 172.914 152.925 173.271 151.893C173.43 151.576 173.35 151.298 173.112 151.298C172.914 151.298 172.636 151.536 172.517 151.854C172.398 152.131 170.969 154.433 169.342 156.933L166.365 161.457L167.675 164.156C172.874 174.871 171.009 188.562 163.31 196.777C162.198 197.967 161.405 198.919 161.524 198.919C161.596 198.944 162.806 198.938 164.586 198.931C165.723 198.926 167.093 198.919 168.548 198.919C172.318 198.919 176.089 199.078 176.922 199.316C180.494 200.269 182.637 202.928 182.637 206.42C182.637 209.595 180.613 212.293 177.478 213.206C176.485 213.523 167.874 213.603 150.015 213.523L124.02 213.404L122.194 212.492C120.091 211.46 117.511 208.999 116.44 207.015C115.845 205.944 115.487 205.666 114.892 205.825C114.456 205.944 112.074 206.579 109.614 207.214C87.1117 213.246 31.1539 212.095 20.9545 205.428C17.8589 203.444 17.5017 200.308 20.0814 198.165C23.2563 195.586 29.0505 194.832 54.5688 193.562C79.0553 192.372 89.3341 191.141 97.4698 188.562C103.462 186.657 105.566 184.514 105.566 180.387C105.566 171.101 112.511 153.123 122.234 137.21C123.703 134.789 131.362 119.947 139.26 104.192L153.586 75.54L153.666 52.4038C153.766 31.0991 153.754 28.171 155.19 26.454C155.46 26.1305 155.782 25.85 156.166 25.4976ZM192.943 27.9712C191.71 27.1737 190.476 25.9939 188.669 24.2277C186.486 22.0848 184.502 20.3386 184.304 20.3783C184.203 20.386 183.892 20.4696 183.411 20.6146L192.788 27.9548L192.943 27.9712ZM211.429 29.932L211.925 29.9846V29.9423L211.429 29.932ZM189.03 62.8159V64.2189L192.492 72.1532C192.242 71.5204 191.987 70.877 191.725 70.2222C190.559 67.2944 189.667 64.8663 189.03 62.8159ZM173.033 125.583L172.154 141.01C172.929 137.875 173.033 134.005 173.033 125.82C173.033 125.741 173.033 125.662 173.033 125.583ZM144.125 152.944H142.576L144.229 153.632C144.123 153.396 144.089 153.177 144.125 152.944ZM149.229 155.714L150.406 156.204L157.087 158.75L162.097 166.085L165.125 172.808V182.485L162.877 189.518C164.812 186.099 165.889 181.929 165.889 177.291C165.889 165.741 159.129 157.049 149.229 155.714ZM155.484 196.854L159.637 193.78C158.404 195 157.013 196.034 155.484 196.854ZM158.765 66.7713L161.993 68.0898H163.558C162.226 67.8509 160.874 67.3806 159.143 66.6109C158.972 66.5452 158.849 66.5665 158.765 66.7713ZM168.617 68.0898H168.674L168.71 68.0765C168.68 68.081 168.649 68.0854 168.617 68.0898ZM174.181 35.0854H173.685L172.223 36.3078L173.685 42.0122L174.624 50.0596V56.3753L172.223 60.9592L167.943 63.3021H163.835C164.697 63.4921 165.661 63.5508 166.723 63.4758C170.374 63.2377 172.398 62.0472 173.985 59.2296L175.215 57.0469V50.8958C175.176 45.6971 175.057 44.1891 174.223 40.9746C173.668 38.911 173.271 36.8475 173.35 36.4109C173.417 35.8465 173.739 35.3913 174.181 35.0854ZM160.925 61.8463L163.11 63.104C162.27 62.8263 161.54 62.4062 160.925 61.8463ZM159.15 29.3873L180.36 21.5945C173.423 23.8908 159.803 28.6671 159.381 29.0296C159.292 29.1053 159.216 29.211 159.15 29.3873Z" fill="#2EC4B6" stroke="#2EC4B6" stroke-width="2.0384"/>
<path fill-rule="evenodd" clip-rule="evenodd" d="M152.905 347.362C153.659 346.647 157.984 345.02 167.708 341.726C175.288 339.187 181.796 337.083 182.193 337.083C182.59 337.044 184.971 339.068 187.59 341.568C190.17 344.068 192.71 346.211 193.226 346.33C193.742 346.449 198.147 346.608 202.949 346.647C209.142 346.734 211.695 346.583 212.736 347.764C213.597 348.74 213.426 350.626 213.426 354.306C213.426 359.942 213.387 360.418 212.394 362.362C210.767 365.617 208.148 367.244 197.195 371.807C193.94 373.157 192.194 374.149 190.964 375.339C188.265 377.919 188.424 378.911 193.583 392.205C202.155 414.23 203.465 420.977 203.505 442.406C203.505 464.233 203.108 465.9 195.806 474.075C192.432 477.884 191.996 478.519 191.599 480.583C190.249 487.091 194.218 502.41 201.322 517.926L202.83 521.18H205.37C208.386 521.18 210.132 521.815 211.521 523.482C214.458 526.974 213.704 532.014 209.934 534.356C208.545 535.189 207.989 535.268 201.044 535.387C192.631 535.546 191.043 535.189 189.099 532.649C187.908 531.062 182.55 519.156 179.098 510.267C175.962 502.251 172.867 492.647 171.557 486.813C170.486 482.051 169.652 474.789 170.009 473.757C170.168 473.44 170.089 473.162 169.851 473.162C169.652 473.162 169.374 473.4 169.255 473.718C169.136 473.995 167.708 476.297 166.08 478.797L163.104 483.321L164.414 486.02C169.613 496.735 167.747 510.426 160.048 518.641C158.937 519.831 158.143 520.784 158.262 520.784C158.335 520.808 159.545 520.802 161.324 520.795C162.462 520.79 163.832 520.784 165.287 520.784C169.057 520.784 172.827 520.942 173.661 521.18C177.232 522.133 179.375 524.792 179.375 528.284C179.375 531.459 177.351 534.157 174.216 535.07C173.224 535.387 164.612 535.467 146.753 535.387L120.759 535.268L118.933 534.356C116.83 533.324 114.25 530.863 113.178 528.879C112.583 527.808 112.226 527.53 111.631 527.689C111.194 527.808 108.813 528.443 106.352 529.078C83.8502 535.11 27.8924 533.959 17.693 527.292C14.5974 525.308 14.2403 522.172 16.8199 520.029C19.9948 517.45 25.789 516.696 51.3074 515.426C75.7939 514.236 86.0726 513.005 94.2084 510.426C100.201 508.521 102.304 506.378 102.304 502.251C102.304 492.965 109.249 474.987 118.973 459.074C120.441 456.653 128.101 441.811 135.998 426.056L150.325 397.404L150.404 374.268C150.504 352.963 150.492 350.035 151.928 348.318C152.199 347.995 152.521 347.714 152.905 347.362ZM189.681 349.835C188.448 349.038 187.214 347.858 185.408 346.092C183.225 343.949 181.241 342.203 181.042 342.242C180.942 342.25 180.631 342.334 180.15 342.479L189.527 349.819L189.681 349.835ZM208.168 351.796L208.664 351.849V351.806L208.168 351.796ZM185.769 384.68V386.083L189.23 394.017C188.981 393.384 188.725 392.741 188.464 392.086C187.297 389.158 186.406 386.73 185.769 384.68ZM169.771 447.447L168.893 462.874C169.668 459.739 169.771 455.869 169.771 447.684C169.771 447.605 169.771 447.526 169.771 447.447ZM140.863 474.808H139.315L140.967 475.496C140.861 475.26 140.827 475.041 140.863 474.808ZM145.967 477.578L147.144 478.068L153.825 480.614L158.836 487.949L161.863 494.672V504.349L159.616 511.382C161.551 507.963 162.628 503.793 162.628 499.155C162.628 487.605 155.867 478.913 145.967 477.578ZM152.222 518.718L156.375 515.644C155.143 516.864 153.751 517.898 152.222 518.718ZM155.504 388.635L158.731 389.954H160.296C158.965 389.715 157.613 389.245 155.881 388.475C155.71 388.409 155.587 388.431 155.504 388.635ZM165.356 389.954H165.412L165.449 389.94C165.418 389.945 165.387 389.949 165.356 389.954ZM170.919 356.949H170.423L168.962 358.172L170.423 363.876L171.363 371.924V378.239L168.962 382.823L164.682 385.166H160.573C161.436 385.356 162.399 385.415 163.461 385.34C167.112 385.102 169.136 383.911 170.724 381.094L171.954 378.911V372.76C171.914 367.561 171.795 366.053 170.962 362.839C170.406 360.775 170.009 358.711 170.089 358.275C170.156 357.711 170.478 357.255 170.919 356.949ZM157.663 383.71L159.849 384.968C159.008 384.69 158.279 384.27 157.663 383.71ZM155.889 351.251L177.099 343.459C170.161 345.755 156.542 350.531 156.119 350.894C156.031 350.969 155.955 351.075 155.889 351.251Z" fill="#FF9F1C" stroke="#FF9F1C" stroke-width="2.0384"/>
<rect x="0.887459" y="1.00282" width="230.03" height="548.633" rx="3.28059" stroke="#9747FF" stroke-width="0.72902" stroke-dasharray="7.29 3.65"/>
</svg>
