<svg width="329" height="428" viewBox="0 0 329 428" fill="none" xmlns="http://www.w3.org/2000/svg">
<path d="M24.3304 70.3707V30.4573H47.7336L46.9163 34.6802H29.6704V47.4307H45.0364L44.2191 51.6536H29.6704V70.3707H24.3304ZM76.5857 67.9187C75.8955 68.4091 75.0963 68.845 74.1882 69.2265C73.2982 69.5897 72.3719 69.8985 71.4092 70.1528C70.4466 70.4071 69.4749 70.5978 68.494 70.7249C67.5314 70.852 66.6323 70.9156 65.7968 70.9156C63.9442 70.9156 62.1824 70.6068 60.5114 69.9893C58.8404 69.3718 57.3782 68.4636 56.125 67.2648C54.8717 66.0661 53.8727 64.5858 53.1281 62.824C52.3834 61.044 52.011 59.0006 52.011 56.6939C52.011 54.3145 52.4015 52.1531 53.1825 50.2097C53.9817 48.2662 55.0443 46.6134 56.3702 45.2512C57.6961 43.8708 59.2218 42.8082 60.9473 42.0635C62.6909 41.3188 64.5163 40.9465 66.4235 40.9465C67.9673 40.9465 69.4022 41.2099 70.7281 41.7366C72.0722 42.2452 73.2346 43.0171 74.2154 44.0524C75.2144 45.0877 75.9954 46.3863 76.5585 47.9484C77.1215 49.4922 77.403 51.2995 77.403 53.3701C77.403 53.7878 77.3849 54.2873 77.3486 54.8685C77.3122 55.4497 77.2396 56.0582 77.1306 56.6939H57.4055C57.4055 58.2559 57.6779 59.6545 58.2228 60.8896C58.7859 62.1065 59.5669 63.1418 60.5658 63.9955C61.583 64.831 62.7908 65.4667 64.1894 65.9026C65.5879 66.3385 67.1318 66.5565 68.821 66.5565C69.2387 66.5565 69.7473 66.5383 70.3467 66.502C70.9461 66.4657 71.5909 66.393 72.2811 66.284C72.9713 66.175 73.6887 66.0207 74.4334 65.8209C75.1781 65.6029 75.8955 65.3214 76.5857 64.9763V67.9187ZM72.499 53.479C72.499 52.1168 72.3083 50.918 71.9269 49.8827C71.5454 48.8293 71.0278 47.9484 70.3739 47.24C69.7201 46.5316 68.9572 45.9958 68.0854 45.6326C67.2317 45.2693 66.3145 45.0877 65.3337 45.0877C64.2439 45.0877 63.2177 45.3147 62.255 45.7688C61.2924 46.2047 60.4478 46.8041 59.7213 47.5669C59.0129 48.3298 58.4498 49.2198 58.0321 50.2369C57.6143 51.2541 57.4055 52.3348 57.4055 53.479H72.499ZM88.0012 45.6326H82.1709L82.6068 42.9626C84.0235 42.672 85.1587 42.3087 86.0124 41.8728C86.866 41.4187 87.5653 40.8557 88.1102 40.1836C88.6733 39.5116 89.1364 38.7033 89.4997 37.7589C89.8811 36.7962 90.3079 35.6519 90.7802 34.326H93.1777V41.4914H103.64L102.55 45.6326H93.1777V61.7614C93.1777 62.6332 93.3049 63.3779 93.5591 63.9955C93.8316 64.5949 94.2039 65.0853 94.6762 65.4667C95.1484 65.8481 95.7205 66.1296 96.3926 66.3113C97.0646 66.4747 97.8093 66.5565 98.6266 66.5565C99.4621 66.5565 100.289 66.4838 101.106 66.3385C101.941 66.175 102.732 65.9571 103.476 65.6846V68.6271C102.332 69.3718 101.124 69.9439 99.8527 70.3435C98.5994 70.7249 97.3189 70.9156 96.0112 70.9156C94.7942 70.9156 93.6954 70.7431 92.7145 70.398C91.7337 70.0529 90.8892 69.5534 90.1808 68.8995C89.4906 68.2456 88.9548 67.4374 88.5734 66.4747C88.1919 65.4939 88.0012 64.3769 88.0012 63.1236V45.6326ZM130.966 67.9187C129.84 68.7905 128.496 69.508 126.934 70.071C125.39 70.6341 123.701 70.9156 121.866 70.9156C119.905 70.9156 118.125 70.5796 116.526 69.9076C114.946 69.2174 113.593 68.2638 112.467 67.0469C111.341 65.83 110.469 64.3769 109.851 62.6877C109.252 60.9804 108.952 59.1187 108.952 57.1026C108.952 54.7595 109.352 52.5981 110.151 50.6183C110.95 48.6386 112.04 46.9312 113.42 45.4964C114.819 44.0615 116.463 42.9444 118.352 42.1453C120.241 41.3461 122.266 40.9465 124.427 40.9465C124.936 40.9465 125.481 40.9737 126.062 41.0282C126.661 41.0646 127.252 41.1372 127.833 41.2462C128.414 41.3552 128.977 41.4914 129.522 41.6549C130.067 41.8002 130.548 41.9818 130.966 42.1997L129.876 46.7224L129.277 46.9948C128.914 46.7224 128.496 46.4681 128.024 46.232C127.57 45.9958 127.079 45.796 126.552 45.6326C126.044 45.4691 125.508 45.342 124.945 45.2512C124.4 45.1422 123.864 45.0877 123.338 45.0877C122.121 45.0877 120.967 45.3329 119.877 45.8233C118.806 46.2955 117.861 46.9948 117.044 47.9211C116.227 48.8293 115.582 49.9554 115.11 51.2995C114.637 52.6254 114.401 54.142 114.401 55.8493C114.401 57.593 114.646 59.1278 115.137 60.4537C115.645 61.7796 116.336 62.8966 117.207 63.8048C118.079 64.7129 119.115 65.4031 120.313 65.8754C121.512 66.3294 122.811 66.5565 124.209 66.5565C125.045 66.5565 126.053 66.4566 127.234 66.2568C128.414 66.0388 129.658 65.612 130.966 64.9763V67.9187ZM139.03 26.7248H144.207V46.1775C144.861 45.5962 145.587 44.9969 146.387 44.3793C147.186 43.7618 148.048 43.1987 148.975 42.6902C149.901 42.1816 150.873 41.7638 151.89 41.4369C152.907 41.11 153.961 40.9465 155.05 40.9465C156.358 40.9465 157.539 41.2008 158.592 41.7093C159.664 42.1997 160.581 42.899 161.344 43.8072C162.107 44.6972 162.688 45.7779 163.088 47.0493C163.505 48.3026 163.714 49.7011 163.714 51.245V70.3707H158.538V51.6809C158.538 50.6274 158.383 49.7011 158.074 48.9019C157.784 48.1028 157.375 47.4398 156.848 46.9131C156.34 46.3682 155.722 45.9686 154.996 45.7143C154.269 45.4419 153.488 45.3056 152.653 45.3056C151.127 45.3056 149.683 45.7052 148.321 46.5044C146.959 47.3036 145.587 48.357 144.207 49.6648V70.3707H139.03V26.7248ZM172.814 41.4914H179.489L180.524 46.3137C181.16 45.7325 181.868 45.1331 182.649 44.5155C183.43 43.8798 184.257 43.2986 185.128 42.7719C186 42.2452 186.908 41.8092 187.853 41.4641C188.816 41.119 189.787 40.9465 190.768 40.9465C191.694 40.9465 192.575 41.0918 193.411 41.3824C194.246 41.673 195 42.0726 195.672 42.5812C196.362 43.0716 196.962 43.6528 197.47 44.3248C197.997 44.9969 198.406 45.7143 198.696 46.4772C199.423 45.8596 200.177 45.2239 200.958 44.57C201.739 43.9162 202.565 43.3259 203.437 42.7991C204.309 42.2542 205.226 41.8092 206.189 41.4641C207.169 41.119 208.214 40.9465 209.322 40.9465C210.684 40.9465 211.91 41.2099 213 41.7366C214.09 42.2633 215.016 42.9808 215.779 43.8889C216.542 44.7971 217.123 45.8687 217.522 47.1038C217.94 48.3389 218.149 49.6648 218.149 51.0815V70.3707H210.112V52.0896C210.112 51.2541 210.003 50.5003 209.785 49.8283C209.567 49.1562 209.249 48.5841 208.831 48.1118C208.432 47.6396 207.95 47.2763 207.387 47.0221C206.824 46.7678 206.198 46.6406 205.507 46.6406C204.944 46.6406 204.409 46.7224 203.9 46.8858C203.391 47.0493 202.883 47.2763 202.374 47.5669C201.884 47.8394 201.394 48.1754 200.903 48.575C200.413 48.9746 199.913 49.4014 199.405 49.8555C199.459 50.2369 199.486 50.6456 199.486 51.0815V70.3707H191.449V52.0896C191.449 51.2541 191.331 50.5003 191.095 49.8283C190.877 49.1562 190.559 48.5841 190.141 48.1118C189.742 47.6396 189.261 47.2763 188.697 47.0221C188.134 46.7678 187.508 46.6406 186.818 46.6406C186.273 46.6406 185.746 46.7224 185.237 46.8858C184.747 47.0493 184.257 47.2763 183.766 47.5669C183.276 47.8394 182.785 48.1754 182.295 48.575C181.823 48.9564 181.341 49.3742 180.851 49.8283V70.3707H172.814V41.4914ZM242.478 66.1478C241.97 66.5837 241.371 67.0832 240.68 67.6463C240.008 68.1912 239.264 68.7088 238.446 69.1992C237.629 69.6714 236.748 70.071 235.804 70.398C234.859 70.7431 233.869 70.9156 232.834 70.9156C231.69 70.9156 230.645 70.6977 229.701 70.2617C228.774 69.8258 227.984 69.2446 227.33 68.5181C226.677 67.7734 226.168 66.9107 225.805 65.9298C225.46 64.949 225.287 63.9228 225.287 62.8512C225.287 61.5616 225.569 60.3265 226.132 59.1459C226.695 57.9472 227.585 56.8937 228.802 55.9855C230.037 55.0774 231.635 54.3599 233.597 53.8332C235.558 53.2883 237.938 53.0159 240.735 53.0159H242.26V51.0543C242.26 49.5104 241.77 48.3207 240.789 47.4852C239.827 46.6497 238.546 46.232 236.948 46.232C236.294 46.232 235.595 46.3137 234.85 46.4772C234.105 46.6225 233.361 46.8404 232.616 47.131C231.889 47.4035 231.172 47.7304 230.464 48.1118C229.773 48.4751 229.138 48.8747 228.556 49.3106L228.066 49.0382L226.622 43.8889C228.892 42.781 231.018 42.0181 232.997 41.6004C234.995 41.1645 236.911 40.9465 238.746 40.9465C240.453 40.9465 242.015 41.119 243.432 41.4641C244.867 41.7911 246.084 42.3178 247.083 43.0443C248.1 43.7527 248.89 44.679 249.453 45.8233C250.016 46.9676 250.298 48.348 250.298 49.9645V62.4425C250.298 62.7513 250.316 63.0692 250.352 63.3961C250.407 63.723 250.507 64.0227 250.652 64.2952C250.797 64.5676 250.997 64.7947 251.251 64.9763C251.506 65.1398 251.842 65.2215 252.259 65.2215C252.514 65.2215 252.795 65.1942 253.104 65.1398C253.413 65.0853 253.74 64.9854 254.085 64.8401V68.4908C252.995 69.2537 251.905 69.8531 250.815 70.289C249.744 70.7067 248.699 70.9156 247.682 70.9156C246.956 70.9156 246.32 70.7885 245.775 70.5342C245.23 70.2981 244.749 69.9711 244.331 69.5534C243.913 69.1356 243.55 68.6362 243.241 68.0549C242.951 67.4737 242.696 66.838 242.478 66.1478ZM242.26 56.2852H240.871C239.2 56.2852 237.838 56.4033 236.784 56.6394C235.749 56.8755 234.941 57.2116 234.36 57.6475C233.778 58.0652 233.379 58.5647 233.161 59.1459C232.943 59.7271 232.834 60.3538 232.834 61.0258C232.834 61.7342 232.934 62.3517 233.134 62.8784C233.333 63.4052 233.606 63.8411 233.951 64.1862C234.314 64.5313 234.732 64.7947 235.204 64.9763C235.676 65.1398 236.185 65.2215 236.73 65.2215C237.511 65.2215 238.346 65.0399 239.236 64.6766C240.144 64.3133 241.153 63.6231 242.26 62.606V56.2852ZM261.386 46.7769H255.583L256.128 43.2078C257.091 42.9172 257.917 42.6266 258.607 42.336C259.316 42.0454 259.924 41.7275 260.433 41.3824C260.959 41.0191 261.413 40.6286 261.795 40.2109C262.195 39.775 262.567 39.2755 262.912 38.7124C263.257 38.1494 263.602 37.5046 263.947 36.7781C264.292 36.0515 264.683 35.216 265.119 34.2716H269.042V41.4914H279.34L278.087 46.7769H269.423V60.3719C269.423 62.1519 269.896 63.4052 270.84 64.1317C271.803 64.8582 273.147 65.2215 274.872 65.2215C275.617 65.2215 276.362 65.1579 277.106 65.0308C277.869 64.9036 278.596 64.7038 279.286 64.4314V68.1094C277.96 69.0539 276.516 69.7623 274.954 70.2345C273.41 70.6886 271.848 70.9156 270.268 70.9156C268.76 70.9156 267.444 70.7067 266.318 70.289C265.21 69.8531 264.283 69.2355 263.539 68.4364C262.812 67.6372 262.267 66.6655 261.904 65.5212C261.559 64.3769 261.386 63.0782 261.386 61.6252V46.7769ZM310.045 67.5373C309.155 68.173 308.22 68.7088 307.239 69.1447C306.258 69.5625 305.268 69.9076 304.269 70.18C303.27 70.4343 302.28 70.6159 301.3 70.7249C300.319 70.852 299.383 70.9156 298.493 70.9156C296.314 70.9156 294.325 70.6068 292.527 69.9893C290.729 69.3718 289.185 68.4636 287.895 67.2648C286.606 66.0661 285.607 64.6039 284.898 62.8784C284.19 61.1348 283.836 59.1459 283.836 56.9119C283.836 54.4417 284.254 52.2258 285.089 50.2642C285.943 48.2844 287.078 46.6043 288.495 45.2239C289.911 43.8435 291.546 42.79 293.399 42.0635C295.27 41.3188 297.222 40.9465 299.256 40.9465C300.982 40.9465 302.58 41.2189 304.051 41.7638C305.523 42.3087 306.794 43.1261 307.866 44.2159C308.937 45.2875 309.773 46.6225 310.372 48.2208C310.972 49.8192 311.271 51.6718 311.271 53.7787C311.271 54.3963 311.244 54.9957 311.189 55.5769C311.135 56.1399 311.062 56.6576 310.972 57.1298H292.118C292.118 58.4921 292.354 59.6817 292.827 60.6989C293.317 61.716 293.998 62.5606 294.87 63.2326C295.76 63.9047 296.822 64.4041 298.058 64.7311C299.311 65.058 300.691 65.2215 302.199 65.2215C302.689 65.2215 303.243 65.2033 303.861 65.167C304.478 65.1307 305.132 65.0671 305.822 64.9763C306.512 64.8673 307.212 64.722 307.92 64.5404C308.647 64.3587 309.355 64.1317 310.045 63.8593V67.5373ZM303.915 53.8332C303.915 52.5618 303.77 51.4539 303.479 50.5094C303.189 49.5467 302.789 48.7475 302.28 48.1118C301.772 47.4761 301.173 47.0039 300.482 46.6951C299.792 46.3863 299.047 46.232 298.248 46.232C297.358 46.232 296.541 46.4136 295.796 46.7769C295.052 47.1401 294.407 47.6578 293.862 48.3298C293.317 49.0018 292.89 49.801 292.581 50.7273C292.273 51.6536 292.118 52.6889 292.118 53.8332H303.915Z" fill="#2EC4B6"/>
<path d="M21.0691 392.235V352.321H44.4723L43.6549 356.544H26.4091V369.295H41.775L40.9577 373.518H26.4091V392.235H21.0691ZM73.3244 389.783C72.6342 390.273 71.835 390.709 70.9268 391.091C70.0368 391.454 69.1105 391.763 68.1479 392.017C67.1852 392.271 66.2135 392.462 65.2327 392.589C64.27 392.716 63.371 392.78 62.5355 392.78C60.6828 392.78 58.921 392.471 57.25 391.853C55.579 391.236 54.1169 390.328 52.8636 389.129C51.6104 387.93 50.6114 386.45 49.8667 384.688C49.122 382.908 48.7497 380.865 48.7497 378.558C48.7497 376.179 49.1402 374.017 49.9212 372.074C50.7204 370.13 51.7829 368.478 53.1088 367.115C54.4347 365.735 55.9604 364.672 57.6859 363.928C59.4296 363.183 61.255 362.811 63.1621 362.811C64.706 362.811 66.1408 363.074 67.4668 363.601C68.8108 364.109 69.9733 364.881 70.9541 365.917C71.953 366.952 72.7341 368.25 73.2971 369.813C73.8602 371.356 74.1417 373.164 74.1417 375.234C74.1417 375.652 74.1235 376.151 74.0872 376.733C74.0509 377.314 73.9782 377.922 73.8693 378.558H54.1441C54.1441 380.12 54.4166 381.519 54.9615 382.754C55.5245 383.971 56.3055 385.006 57.3045 385.86C58.3216 386.695 59.5295 387.331 60.928 387.767C62.3266 388.203 63.8705 388.421 65.5596 388.421C65.9774 388.421 66.4859 388.402 67.0853 388.366C67.6847 388.33 68.3295 388.257 69.0197 388.148C69.7099 388.039 70.4273 387.885 71.172 387.685C71.9167 387.467 72.6342 387.186 73.3244 386.84V389.783ZM69.2377 375.343C69.2377 373.981 69.0469 372.782 68.6655 371.747C68.2841 370.693 67.7664 369.813 67.1126 369.104C66.4587 368.396 65.6959 367.86 64.824 367.497C63.9704 367.133 63.0531 366.952 62.0723 366.952C60.9825 366.952 59.9563 367.179 58.9937 367.633C58.031 368.069 57.1864 368.668 56.4599 369.431C55.7516 370.194 55.1885 371.084 54.7707 372.101C54.353 373.118 54.1441 374.199 54.1441 375.343H69.2377ZM84.7399 367.497H78.9095L79.3454 364.827C80.7621 364.536 81.8973 364.173 82.751 363.737C83.6047 363.283 84.304 362.72 84.8488 362.048C85.4119 361.376 85.8751 360.567 86.2383 359.623C86.6198 358.66 87.0466 357.516 87.5188 356.19H89.9164V363.356H100.378L99.2885 367.497H89.9164V383.626C89.9164 384.497 90.0435 385.242 90.2978 385.86C90.5702 386.459 90.9426 386.949 91.4148 387.331C91.8871 387.712 92.4592 387.994 93.1312 388.175C93.8033 388.339 94.5479 388.421 95.3653 388.421C96.2008 388.421 97.0272 388.348 97.8446 388.203C98.6801 388.039 99.4702 387.821 100.215 387.549V390.491C99.0706 391.236 97.8627 391.808 96.5913 392.208C95.338 392.589 94.0575 392.78 92.7498 392.78C91.5329 392.78 90.434 392.607 89.4532 392.262C88.4724 391.917 87.6278 391.418 86.9194 390.764C86.2292 390.11 85.6934 389.302 85.312 388.339C84.9306 387.358 84.7399 386.241 84.7399 384.988V367.497ZM127.705 389.783C126.579 390.655 125.235 391.372 123.672 391.935C122.129 392.498 120.439 392.78 118.605 392.78C116.643 392.78 114.863 392.444 113.265 391.772C111.685 391.082 110.332 390.128 109.206 388.911C108.079 387.694 107.208 386.241 106.59 384.552C105.991 382.845 105.691 380.983 105.691 378.967C105.691 376.624 106.091 374.462 106.89 372.482C107.689 370.503 108.779 368.795 110.159 367.36C111.558 365.926 113.201 364.809 115.09 364.009C116.979 363.21 119.005 362.811 121.166 362.811C121.675 362.811 122.219 362.838 122.801 362.892C123.4 362.929 123.99 363.001 124.572 363.11C125.153 363.219 125.716 363.356 126.261 363.519C126.806 363.664 127.287 363.846 127.705 364.064L126.615 368.586L126.016 368.859C125.652 368.586 125.235 368.332 124.762 368.096C124.308 367.86 123.818 367.66 123.291 367.497C122.782 367.333 122.247 367.206 121.684 367.115C121.139 367.006 120.603 366.952 120.076 366.952C118.859 366.952 117.706 367.197 116.616 367.687C115.544 368.16 114.6 368.859 113.783 369.785C112.965 370.693 112.321 371.82 111.848 373.164C111.376 374.49 111.14 376.006 111.14 377.713C111.14 379.457 111.385 380.992 111.876 382.318C112.384 383.644 113.074 384.761 113.946 385.669C114.818 386.577 115.853 387.267 117.052 387.739C118.251 388.194 119.549 388.421 120.948 388.421C121.784 388.421 122.792 388.321 123.972 388.121C125.153 387.903 126.397 387.476 127.705 386.84V389.783ZM135.769 348.589H140.946V368.042C141.599 367.46 142.326 366.861 143.125 366.243C143.924 365.626 144.787 365.063 145.713 364.554C146.64 364.046 147.611 363.628 148.629 363.301C149.646 362.974 150.699 362.811 151.789 362.811C153.097 362.811 154.277 363.065 155.331 363.573C156.402 364.064 157.32 364.763 158.082 365.671C158.845 366.561 159.427 367.642 159.826 368.913C160.244 370.167 160.453 371.565 160.453 373.109V392.235H155.276V373.545C155.276 372.492 155.122 371.565 154.813 370.766C154.523 369.967 154.114 369.304 153.587 368.777C153.079 368.232 152.461 367.833 151.734 367.578C151.008 367.306 150.227 367.17 149.391 367.17C147.866 367.17 146.422 367.569 145.06 368.369C143.697 369.168 142.326 370.221 140.946 371.529V392.235H135.769V348.589ZM169.553 363.356H176.227L177.263 368.178C177.898 367.597 178.607 366.997 179.388 366.38C180.169 365.744 180.995 365.163 181.867 364.636C182.739 364.109 183.647 363.673 184.592 363.328C185.554 362.983 186.526 362.811 187.507 362.811C188.433 362.811 189.314 362.956 190.149 363.247C190.985 363.537 191.739 363.937 192.411 364.445C193.101 364.936 193.7 365.517 194.209 366.189C194.736 366.861 195.144 367.578 195.435 368.341C196.161 367.724 196.915 367.088 197.696 366.434C198.477 365.78 199.304 365.19 200.176 364.663C201.047 364.118 201.965 363.673 202.927 363.328C203.908 362.983 204.952 362.811 206.06 362.811C207.423 362.811 208.649 363.074 209.738 363.601C210.828 364.127 211.754 364.845 212.517 365.753C213.28 366.661 213.861 367.733 214.261 368.968C214.679 370.203 214.888 371.529 214.888 372.946V392.235H206.85V373.954C206.85 373.118 206.741 372.364 206.524 371.692C206.306 371.02 205.988 370.448 205.57 369.976C205.17 369.504 204.689 369.14 204.126 368.886C203.563 368.632 202.936 368.505 202.246 368.505C201.683 368.505 201.147 368.586 200.639 368.75C200.13 368.913 199.622 369.14 199.113 369.431C198.623 369.704 198.132 370.04 197.642 370.439C197.151 370.839 196.652 371.266 196.143 371.72C196.198 372.101 196.225 372.51 196.225 372.946V392.235H188.188V373.954C188.188 373.118 188.07 372.364 187.834 371.692C187.616 371.02 187.298 370.448 186.88 369.976C186.481 369.504 185.999 369.14 185.436 368.886C184.873 368.632 184.246 368.505 183.556 368.505C183.011 368.505 182.485 368.586 181.976 368.75C181.486 368.913 180.995 369.14 180.505 369.431C180.014 369.704 179.524 370.04 179.034 370.439C178.561 370.821 178.08 371.238 177.59 371.692V392.235H169.553V363.356ZM239.217 388.012C238.709 388.448 238.109 388.947 237.419 389.51C236.747 390.055 236.002 390.573 235.185 391.063C234.368 391.536 233.487 391.935 232.542 392.262C231.598 392.607 230.608 392.78 229.572 392.78C228.428 392.78 227.384 392.562 226.439 392.126C225.513 391.69 224.723 391.109 224.069 390.382C223.415 389.638 222.907 388.775 222.543 387.794C222.198 386.813 222.026 385.787 222.026 384.715C222.026 383.426 222.307 382.191 222.87 381.01C223.433 379.811 224.323 378.758 225.54 377.85C226.775 376.942 228.374 376.224 230.335 375.697C232.297 375.152 234.676 374.88 237.473 374.88H238.999V372.918C238.999 371.375 238.509 370.185 237.528 369.349C236.565 368.514 235.285 368.096 233.686 368.096C233.033 368.096 232.333 368.178 231.589 368.341C230.844 368.487 230.099 368.705 229.355 368.995C228.628 369.268 227.911 369.595 227.202 369.976C226.512 370.339 225.876 370.739 225.295 371.175L224.805 370.902L223.361 365.753C225.631 364.645 227.756 363.882 229.736 363.465C231.734 363.029 233.65 362.811 235.485 362.811C237.192 362.811 238.754 362.983 240.171 363.328C241.606 363.655 242.822 364.182 243.821 364.908C244.839 365.617 245.629 366.543 246.192 367.687C246.755 368.832 247.036 370.212 247.036 371.829V384.307C247.036 384.615 247.054 384.933 247.091 385.26C247.145 385.587 247.245 385.887 247.39 386.159C247.536 386.432 247.736 386.659 247.99 386.84C248.244 387.004 248.58 387.086 248.998 387.086C249.252 387.086 249.534 387.058 249.843 387.004C250.151 386.949 250.478 386.85 250.823 386.704V390.355C249.734 391.118 248.644 391.717 247.554 392.153C246.482 392.571 245.438 392.78 244.421 392.78C243.694 392.78 243.059 392.653 242.514 392.398C241.969 392.162 241.487 391.835 241.07 391.418C240.652 391 240.289 390.5 239.98 389.919C239.689 389.338 239.435 388.702 239.217 388.012ZM238.999 378.149H237.61C235.939 378.149 234.576 378.267 233.523 378.504C232.488 378.74 231.679 379.076 231.098 379.512C230.517 379.929 230.117 380.429 229.899 381.01C229.681 381.591 229.572 382.218 229.572 382.89C229.572 383.598 229.672 384.216 229.872 384.743C230.072 385.269 230.344 385.705 230.69 386.05C231.053 386.395 231.471 386.659 231.943 386.84C232.415 387.004 232.924 387.086 233.468 387.086C234.249 387.086 235.085 386.904 235.975 386.541C236.883 386.177 237.891 385.487 238.999 384.47V378.149ZM258.125 368.641H252.322L252.867 365.072C253.829 364.781 254.656 364.491 255.346 364.2C256.054 363.909 256.663 363.592 257.171 363.247C257.698 362.883 258.152 362.493 258.534 362.075C258.933 361.639 259.305 361.14 259.651 360.577C259.996 360.014 260.341 359.369 260.686 358.642C261.031 357.916 261.421 357.08 261.857 356.136H265.781V363.356H276.079L274.826 368.641H266.162V382.236C266.162 384.016 266.634 385.269 267.579 385.996C268.541 386.722 269.886 387.086 271.611 387.086C272.356 387.086 273.1 387.022 273.845 386.895C274.608 386.768 275.334 386.568 276.025 386.296V389.974C274.699 390.918 273.255 391.626 271.693 392.099C270.149 392.553 268.587 392.78 267.007 392.78C265.499 392.78 264.182 392.571 263.056 392.153C261.948 391.717 261.022 391.1 260.277 390.3C259.551 389.501 259.006 388.53 258.643 387.385C258.297 386.241 258.125 384.942 258.125 383.489V368.641ZM306.784 389.401C305.894 390.037 304.958 390.573 303.978 391.009C302.997 391.427 302.007 391.772 301.008 392.044C300.009 392.298 299.019 392.48 298.038 392.589C297.057 392.716 296.122 392.78 295.232 392.78C293.053 392.78 291.064 392.471 289.266 391.853C287.467 391.236 285.924 390.328 284.634 389.129C283.344 387.93 282.345 386.468 281.637 384.743C280.929 382.999 280.574 381.01 280.574 378.776C280.574 376.306 280.992 374.09 281.828 372.128C282.681 370.149 283.817 368.468 285.233 367.088C286.65 365.708 288.285 364.654 290.137 363.928C292.008 363.183 293.961 362.811 295.995 362.811C297.72 362.811 299.319 363.083 300.79 363.628C302.261 364.173 303.533 364.99 304.604 366.08C305.676 367.152 306.511 368.487 307.111 370.085C307.71 371.683 308.01 373.536 308.01 375.643C308.01 376.26 307.983 376.86 307.928 377.441C307.874 378.004 307.801 378.522 307.71 378.994H288.857C288.857 380.356 289.093 381.546 289.565 382.563C290.056 383.58 290.737 384.425 291.609 385.097C292.499 385.769 293.561 386.268 294.796 386.595C296.049 386.922 297.43 387.086 298.937 387.086C299.428 387.086 299.982 387.067 300.599 387.031C301.217 386.995 301.871 386.931 302.561 386.84C303.251 386.731 303.95 386.586 304.659 386.405C305.385 386.223 306.094 385.996 306.784 385.723V389.401ZM300.654 375.697C300.654 374.426 300.508 373.318 300.218 372.374C299.927 371.411 299.528 370.612 299.019 369.976C298.511 369.34 297.911 368.868 297.221 368.559C296.531 368.25 295.786 368.096 294.987 368.096C294.097 368.096 293.28 368.278 292.535 368.641C291.79 369.004 291.145 369.522 290.601 370.194C290.056 370.866 289.629 371.665 289.32 372.591C289.011 373.518 288.857 374.553 288.857 375.697H300.654Z" fill="#FF9F1C"/>
<rect x="0.913826" y="1.15492" width="327.675" height="426.114" rx="3.28059" stroke="#9747FF" stroke-width="0.72902" stroke-dasharray="7.29 3.65"/>
</svg>
